<svg xmlns="http://www.w3.org/2000/svg">
    <symbol id="facebook" viewBox="0 0 32 32">
        <path d="M32,16.1A16,16,0,1,0,13.5,32V20.75H9.44V16.1H13.5V12.55c0-4,2.39-6.26,6-6.26a24.77,24.77,0,0,1,3.58.31v4h-2a2.33,2.33,0,0,0-2.61,2.52v3h4.44l-.71,4.65H18.5V32A16.07,16.07,0,0,0,32,16.1Z"/>
    </symbol>

    <symbol id="twitter" viewBox="0 0 24 24">
        <path d="m14.093,10.315L22.283,1h-1.941l-7.111,8.089L7.551,1H1l8.589,12.231L1,23h1.941l7.51-8.542,5.998,8.542h6.551l-8.907-12.685h0Zm-2.658,3.024l-.87-1.218L3.64,2.43h2.981l5.588,7.821.87,1.218,7.264,10.166h-2.981l-5.927-8.296h0Z" />
    </symbol>

    <symbol id="instagram" viewBox="0 0 32 32">
        <path d="M16,2.883c4.272,0,4.778.016,6.465.093a8.853,8.853,0,0,1,2.971.551,4.957,4.957,0,0,1,1.84,1.2,4.957,4.957,0,0,1,1.2,1.84,8.853,8.853,0,0,1,.551,2.971c.077,1.687.093,2.193.093,6.465s-.016,4.778-.093,6.465a8.853,8.853,0,0,1-.551,2.971,5.3,5.3,0,0,1-3.037,3.037,8.853,8.853,0,0,1-2.971.551c-1.687.077-2.193.093-6.465.093s-4.778-.016-6.465-.093a8.853,8.853,0,0,1-2.971-.551,4.957,4.957,0,0,1-1.84-1.2,4.957,4.957,0,0,1-1.2-1.84,8.853,8.853,0,0,1-.551-2.971C2.9,20.778,2.883,20.272,2.883,16s.016-4.778.093-6.465a8.853,8.853,0,0,1,.551-2.971,4.957,4.957,0,0,1,1.2-1.84,4.957,4.957,0,0,1,1.84-1.2,8.853,8.853,0,0,1,2.971-.551C11.222,2.9,11.728,2.883,16,2.883M16,0c-4.345,0-4.89.018-6.6.1A11.744,11.744,0,0,0,5.519.84,7.843,7.843,0,0,0,2.685,2.685,7.843,7.843,0,0,0,.84,5.519,11.744,11.744,0,0,0,.1,9.4C.018,11.11,0,11.655,0,16s.018,4.89.1,6.6A11.744,11.744,0,0,0,.84,26.481a7.843,7.843,0,0,0,1.845,2.834A7.843,7.843,0,0,0,5.519,31.16,11.744,11.744,0,0,0,9.4,31.9c1.707.078,2.251.1,6.6.1s4.89-.018,6.6-.1a11.744,11.744,0,0,0,3.884-.744,8.181,8.181,0,0,0,4.679-4.679A11.744,11.744,0,0,0,31.9,22.6c.078-1.707.1-2.251.1-6.6s-.018-4.89-.1-6.6a11.744,11.744,0,0,0-.744-3.884,7.843,7.843,0,0,0-1.845-2.834A7.843,7.843,0,0,0,26.481.84,11.744,11.744,0,0,0,22.6.1C20.89.018,20.345,0,16,0Zm0,7.784A8.216,8.216,0,1,0,24.216,16,8.216,8.216,0,0,0,16,7.784Zm0,13.55A5.333,5.333,0,1,1,21.333,16,5.333,5.333,0,0,1,16,21.333ZM24.541,5.539a1.92,1.92,0,1,0,1.92,1.92A1.92,1.92,0,0,0,24.541,5.539Z"/>
    </symbol>

    <symbol id="youtube" viewBox="0 0 32 22.507">
        <path d="M31.68,9.6a6.924,6.924,0,0,0-1.272-3.176A4.577,4.577,0,0,0,27.2,5.07c-4.478-.324-11.2-0.324-11.2-0.324H15.993s-6.717,0-11.2.324A4.577,4.577,0,0,0,1.592,6.426,6.921,6.921,0,0,0,.32,9.6,48.4,48.4,0,0,0,0,14.781v2.428a48.4,48.4,0,0,0,.32,5.179,6.921,6.921,0,0,0,1.272,3.176A5.426,5.426,0,0,0,5.12,26.932C7.68,27.177,16,27.253,16,27.253s6.724-.01,11.2-0.334a4.577,4.577,0,0,0,3.206-1.355,6.923,6.923,0,0,0,1.272-3.176A48.46,48.46,0,0,0,32,17.209V14.781A48.46,48.46,0,0,0,31.68,9.6ZM12.7,20.151l0-8.991,8.647,4.511Z" transform="translate(0 -4.747)" />
    </symbol>

    <symbol id="map-pin" viewBox="0 0 24 24" fill="none" stroke="currentColor" stroke-width="2" stroke-linecap="round" stroke-linejoin="round" class="icon icon-tabler icons-tabler-outline icon-tabler-map-pin">
        <path stroke="none" d="M0 0h24v24H0z" fill="none" /><path d="M9 11a3 3 0 1 0 6 0a3 3 0 0 0 -6 0" /><path d="M17.657 16.657l-4.243 4.243a2 2 0 0 1 -2.827 0l-4.244 -4.243a8 8 0 1 1 11.314 0" />
    </symbol>

    <radialGradient id="rg" r="150%" cx="30%" cy="107%">
        <stop stop-color="#fdf497" offset="0" />
        <stop stop-color="#fdf497" offset="0.05" />
        <stop stop-color="#fd5949" offset="0.45" />
        <stop stop-color="#d6249f" offset="0.6" />
        <stop stop-color="#285AEB" offset="0.9" />
    </radialGradient> 
</svg>
